<svg width="25" height="25" viewBox="0 0 25 25" fill="none" xmlns="http://www.w3.org/2000/svg">
<path d="M12.3906 24.8125C10.6719 24.8125 9.04167 24.4896 7.5 23.8438C5.96875 23.2083 4.65625 22.3438 3.5625 21.25C2.46875 20.1458 1.59896 18.8281 0.953125 17.2969C0.317708 15.7656 0 14.1354 0 12.4062C0 10.0938 0.541667 7.98958 1.625 6.09375C2.70833 4.19792 4.19792 2.70833 6.09375 1.625C7.98958 0.541667 10.0885 0 12.3906 0C14.1198 0 15.75 0.317708 17.2812 0.953125C18.8229 1.58854 20.1406 2.45833 21.2344 3.5625C22.3281 4.65625 23.1927 5.97396 23.8281 7.51562C24.4635 9.04688 24.7812 10.6771 24.7812 12.4062C24.7812 14.7188 24.2396 16.8229 23.1562 18.7188C22.0729 20.6146 20.5833 22.1042 18.6875 23.1875C16.7917 24.2708 14.6927 24.8125 12.3906 24.8125ZM12.3906 22.625C13.8177 22.625 15.1615 22.3646 16.4219 21.8438C17.6823 21.3125 18.7604 20.599 19.6562 19.7031C20.5625 18.7969 21.276 17.7135 21.7969 16.4531C22.3177 15.1823 22.5781 13.8333 22.5781 12.4062C22.5781 10.5 22.1354 8.76562 21.25 7.20312C20.3646 5.64062 19.1406 4.41667 17.5781 3.53125C16.026 2.63542 14.2969 2.1875 12.3906 2.1875C10.9635 2.1875 9.61979 2.45312 8.35938 2.98438C7.09896 3.50521 6.01562 4.21875 5.10938 5.125C4.21354 6.02083 3.50521 7.10417 2.98438 8.375C2.46354 9.63542 2.20312 10.9792 2.20312 12.4062C2.20312 13.8333 2.46354 15.1771 2.98438 16.4375C3.51562 17.6979 4.22917 18.7812 5.125 19.6875C6.03125 20.5938 7.11458 21.3125 8.375 21.8438C9.63542 22.3646 10.974 22.625 12.3906 22.625ZM18.2969 10.1875H16.125C15.9375 9.44792 15.526 8.85938 14.8906 8.42188C14.2656 7.97396 13.5208 7.75 12.6562 7.75C11.4479 7.75 10.4844 8.16667 9.76562 9C9.05729 9.83333 8.70312 10.9583 8.70312 12.375C8.70312 13.8125 9.05729 14.9531 9.76562 15.7969C10.4844 16.6406 11.4479 17.0625 12.6562 17.0625C13.5729 17.0625 14.3333 16.8594 14.9375 16.4531C15.5417 16.0365 15.9375 15.4531 16.125 14.7031H18.2969C18.099 16.0156 17.4896 17.0625 16.4688 17.8438C15.4583 18.6146 14.1927 19 12.6719 19C10.7865 19 9.28125 18.401 8.15625 17.2031C7.04167 16.0052 6.48438 14.3958 6.48438 12.375C6.48438 10.375 7.04167 8.78125 8.15625 7.59375C9.27083 6.40625 10.7708 5.8125 12.6562 5.8125C14.1458 5.8125 15.4062 6.21354 16.4375 7.01562C17.4688 7.81771 18.0885 8.875 18.2969 10.1875Z" fill="#1F392C"/>
</svg>
