<svg width="624" height="599" viewBox="0 0 624 599" fill="none" xmlns="http://www.w3.org/2000/svg">
<path d="M-25.541 362.736C-62.2949 282.395 -49.3218 187.925 -1.97467 114.918C43.5992 44.5813 139.976 -27.9475 224.139 23.8773C262.72 47.6532 281.036 90.3287 284.14 134.152C287.944 187.963 276.11 241.06 273.701 294.633C271.685 337.925 274.243 381.895 282.848 424.39C291.33 466.7 306.808 508.891 334.728 542.332C364.993 578.511 411.207 601.267 458.824 598.39C509.321 595.328 553.876 564.356 592.338 534.139C602.495 526.146 612.392 518.004 621.846 509.029C625.645 505.449 620.64 498.518 616.198 501.611C594.585 516.846 574.674 534.333 552.728 549.144C531.715 563.34 509.074 575.556 484.472 582.367C436.361 595.698 385.455 579.471 350.782 544.326C319.789 512.807 302.876 469.902 293.191 427.475C283.31 384.589 280.556 340.16 282.389 296.185C285.989 206.349 323.431 84.8986 235.223 22.0786C200.764 -2.43554 156.249 -5.73465 117.017 8.21837C73.1628 23.7757 35.693 56.8753 7.73347 93.5026C-43.6196 160.849 -66.2565 252.857 -38.4881 334.361C-35.1331 344.15 -31.1817 353.706 -26.4973 362.992C-26.191 363.862 -25.308 363.332 -25.541 362.736Z" fill="#FFADF2"/>
</svg>
