<svg width="411" height="31" viewBox="0 0 411 31" fill="none" xmlns="http://www.w3.org/2000/svg">
<path d="M1.61353 30.0367C54.3336 29.4769 107.144 25.6167 159.862 23.3538C211.982 21.0564 264.201 18.7647 316.314 16.5671C330.877 15.906 345.334 15.339 359.89 14.7777C374.952 14.1454 390.178 14.1237 405.28 12.7926C412.532 12.1097 411.527 0.0316729 404.316 0.0156913C391.103 -0.146719 377.816 0.988717 364.657 1.63074C351.398 2.267 338.239 2.90902 324.98 3.54528C298.562 4.82357 272.139 6.20169 245.698 7.87931C193.826 11.0926 141.849 14.3999 90.0194 18.6172C60.4319 21.0145 30.8674 23.0125 1.39875 26.819C-0.603688 26.8035 -0.388913 30.0212 1.61353 30.0367Z" fill="#FF60E6"/>
</svg>
