<svg width="171" height="13" viewBox="0 0 171 13" fill="none" xmlns="http://www.w3.org/2000/svg">
<path d="M1.1628 9.57499C29.3628 9.57499 57.5628 9.67502 85.8628 9.97502C99.6628 10.075 113.463 10.475 127.263 10.475C133.963 10.475 140.763 10.475 147.463 10.975C150.663 11.175 153.763 11.575 156.863 11.975C160.763 12.475 163.463 12.075 167.363 11.675C170.663 11.375 172.063 7.27501 169.063 5.37501C166.163 3.47501 164.263 1.875 160.763 1.275C157.563 0.675003 154.363 0.475003 151.063 0.275003C144.363 -0.124997 137.563 -0.025003 130.863 0.174997C116.463 0.574997 102.163 1.375 87.7628 2.175C58.8628 3.675 29.9628 5.375 1.1628 7.275C-0.337198 7.275 -0.437198 9.57499 1.1628 9.57499Z" fill="#FFADF2"/>
</svg>
