<svg width="26" height="21" viewBox="0 0 26 21" fill="none" xmlns="http://www.w3.org/2000/svg">
<path d="M7.93406 20.5C17.4545 20.5 22.6618 12.6124 22.6618 5.77223C22.6618 5.54819 22.6618 5.32517 22.6467 5.10315C23.6597 4.37041 24.5342 3.46314 25.2291 2.42382C24.2845 2.84262 23.2823 3.11715 22.2561 3.23821C23.3368 2.59139 24.1455 1.57391 24.5318 0.375208C23.5158 0.978194 22.4042 1.40311 21.245 1.63162C20.4645 0.801767 19.4324 0.25226 18.3082 0.0681321C17.184 -0.115995 16.0304 0.0755224 15.026 0.613049C14.0216 1.15058 13.2224 2.00414 12.752 3.04167C12.2816 4.07919 12.1663 5.24282 12.4238 6.3525C10.3659 6.24927 8.3527 5.71445 6.51485 4.78275C4.67701 3.85105 3.05563 2.5433 1.75595 0.944378C1.09403 2.08389 0.891296 3.43284 1.18903 4.71658C1.48676 6.00032 2.26257 7.12232 3.3585 7.85414C2.53472 7.83 1.72888 7.60777 1.00917 7.20625V7.27185C1.00949 8.46692 1.42319 9.62509 2.18008 10.5499C2.93698 11.4748 3.99047 12.1093 5.16188 12.3459C4.39984 12.5538 3.60028 12.5842 2.82466 12.4347C3.15555 13.4632 3.79954 14.3625 4.66659 15.007C5.53365 15.6515 6.58042 16.009 7.66058 16.0294C6.58737 16.873 5.35837 17.4967 4.04389 17.8648C2.72941 18.233 1.35524 18.3383 0 18.1749C2.36716 19.6939 5.12144 20.4997 7.93406 20.496" fill="#1DA1F2"/>
</svg>
